<svg width="222" height="51" viewBox="0 0 222 51" fill="none" xmlns="http://www.w3.org/2000/svg">
<g clip-path="url(#clip0_1_19)">
<path d="M24.0919 25.1531L34.4763 39.6878C35.0971 40.5567 34.1509 41.6824 33.1881 41.2192L27.8345 38.6411L24.0919 25.1531Z" fill="#06589C"/>
<path d="M24.0917 25.1531L34.4857 10.6114C35.107 9.74204 34.1607 8.61613 33.1976 9.07995L25.3963 12.8363L24.0917 25.1531Z" fill="#06589C"/>
<path d="M1.58515 23.6363L0.724766 24.3711C0.489662 24.6062 0.366363 24.829 0.364652 25.0934L0.368717 25.1611L24.0916 25.1532L26.2326 4.94619C26.2546 4.74077 26.2144 4.53351 26.1172 4.35125C26.0201 4.16899 25.8705 4.02012 25.6877 3.9239C25.505 3.82769 25.2975 3.78856 25.0922 3.81159C24.8869 3.83463 24.6932 3.91875 24.5362 4.05309L2.6194 22.7538C2.14676 23.1791 1.86839 23.4069 1.86839 23.4069C1.76799 23.4894 1.67657 23.5661 1.58515 23.6363Z" fill="#46D1FD"/>
<path d="M0.368971 25.161C0.391733 25.4646 0.592409 25.711 0.899176 25.9867L28.0395 46.3286C28.2127 46.4542 28.4205 46.5232 28.6345 46.5262C28.8484 46.5292 29.0582 46.466 29.2349 46.3453C29.4117 46.2246 29.5469 46.0522 29.6221 45.8518C29.6973 45.6514 29.7087 45.4327 29.6548 45.2256L24.0919 25.1531" fill="#1FBBFD"/>
<path d="M56.534 26.6008V38.1754H53.0654V11.1804H68.825V14.4983H56.534V23.3583H67.6186V26.6008H56.534ZM75.6289 11.1804V38.1754H72.1602V11.1804H75.6289ZM96.0674 38.1754H92.7496V35.6116H92.5988C92.071 36.5165 91.2541 37.2706 90.1482 37.8738C89.0674 38.477 87.9363 38.7787 86.7549 38.7787C84.4928 38.7787 82.7459 38.1377 81.5143 36.8558C80.3078 35.5488 79.7046 33.7014 79.7046 31.3136V19.7012H83.1732V31.0873C83.2486 34.1035 84.7693 35.6116 87.7352 35.6116C89.1176 35.6116 90.2738 35.0587 91.2038 33.9527C92.1338 32.8217 92.5988 31.4769 92.5988 29.9186V19.7012H96.0674V38.1754ZM109.075 28.7875L115.672 38.1754H111.601L107.039 31.3513L102.552 38.1754H98.4801L105.003 28.7875L98.6309 19.7012H102.552L107.114 26.2237L111.45 19.7012H115.522L109.075 28.7875ZM125.816 38.7787C123.101 38.7787 120.864 37.8487 119.105 35.9887C117.345 34.1287 116.465 31.7786 116.465 28.9383C116.465 26.1232 117.32 23.7856 119.029 21.9256C120.738 20.0405 122.925 19.098 125.589 19.098C128.329 19.098 130.503 19.9902 132.112 21.7748C133.746 23.5343 134.563 26.0101 134.563 29.2022L134.525 29.5792H120.009C120.06 31.389 120.663 32.8468 121.819 33.9527C122.975 35.0587 124.358 35.6116 125.966 35.6116C128.178 35.6116 129.913 34.5057 131.169 32.2938L134.261 33.8019C133.431 35.3603 132.275 36.5793 130.792 37.4591C129.334 38.3388 127.676 38.7787 125.816 38.7787ZM120.273 26.7139H130.868C130.767 25.432 130.239 24.3763 129.284 23.5469C128.354 22.6923 127.097 22.265 125.514 22.265C124.207 22.265 123.076 22.6671 122.121 23.4714C121.191 24.2758 120.575 25.3566 120.273 26.7139ZM137.735 19.7012H141.052V22.265H141.203C141.731 21.3601 142.535 20.6061 143.616 20.0028C144.722 19.3996 145.866 19.098 147.047 19.098C149.309 19.098 151.044 19.7515 152.25 21.0585C153.482 22.3404 154.097 24.1752 154.097 26.563V38.1754H150.629V26.7893C150.553 23.7731 149.033 22.265 146.067 22.265C144.684 22.265 143.528 22.8305 142.598 23.9616C141.668 25.0675 141.203 26.3997 141.203 27.958V38.1754H137.735V19.7012ZM164.526 38.477C163.018 38.477 161.761 38.012 160.756 37.082C159.776 36.152 159.273 34.8576 159.248 33.1987V22.8682H156.005V19.7012H159.248V14.0458H162.716V19.7012H167.241V22.8682H162.716V32.0676C162.716 33.2992 162.955 34.1412 163.433 34.5937C163.91 35.021 164.451 35.2346 165.054 35.2346C165.33 35.2346 165.594 35.2095 165.846 35.1592C166.122 35.0838 166.373 34.9958 166.6 34.8953L167.693 37.9869C166.788 38.3137 165.733 38.477 164.526 38.477ZM186.752 38.1754H183.434V35.6116H183.284C182.756 36.5165 181.939 37.2706 180.833 37.8738C179.752 38.477 178.621 38.7787 177.44 38.7787C175.178 38.7787 173.431 38.1377 172.199 36.8558C170.993 35.5488 170.389 33.7014 170.389 31.3136V19.7012H173.858V31.0873C173.933 34.1035 175.454 35.6116 178.42 35.6116C179.802 35.6116 180.959 35.0587 181.889 33.9527C182.819 32.8217 183.284 31.4769 183.284 29.9186V19.7012H186.752V38.1754ZM194.443 38.1754H190.975V19.7012H194.292V22.7174H194.443C194.795 21.7371 195.511 20.9077 196.592 20.229C197.698 19.5253 198.779 19.1734 199.835 19.1734C200.84 19.1734 201.695 19.3242 202.398 19.6258L201.343 22.9813C200.916 22.8054 200.237 22.7174 199.307 22.7174C198 22.7174 196.856 23.2452 195.876 24.3009C194.921 25.3566 194.443 26.5882 194.443 27.9957V38.1754ZM211.824 38.7787C209.11 38.7787 206.873 37.8487 205.113 35.9887C203.354 34.1287 202.474 31.7786 202.474 28.9383C202.474 26.1232 203.329 23.7856 205.038 21.9256C206.747 20.0405 208.934 19.098 211.598 19.098C214.338 19.098 216.512 19.9902 218.121 21.7748C219.754 23.5343 220.571 26.0101 220.571 29.2022L220.534 29.5792H206.018C206.068 31.389 206.672 32.8468 207.828 33.9527C208.984 35.0587 210.367 35.6116 211.975 35.6116C214.187 35.6116 215.921 34.5057 217.178 32.2938L220.27 33.8019C219.44 35.3603 218.284 36.5793 216.801 37.4591C215.343 38.3388 213.684 38.7787 211.824 38.7787ZM206.282 26.7139H216.877C216.776 25.432 216.248 24.3763 215.293 23.5469C214.363 22.6923 213.106 22.265 211.523 22.265C210.216 22.265 209.085 22.6671 208.13 23.4714C207.2 24.2758 206.584 25.3566 206.282 26.7139Z" fill="#757575"/>
</g>
<defs>
<clipPath id="clip0_1_19">
<rect width="222" height="50.3508" fill="white"/>
</clipPath>
</defs>
</svg>
