<svg width="2878" height="544" viewBox="0 0 2878 544" fill="none" xmlns="http://www.w3.org/2000/svg">
<rect y="16" width="512" height="512" rx="106" fill="#0468D7"/>
<path d="M291.322 272.088L370.211 382.552C374.927 389.156 367.736 397.708 360.42 394.187L319.742 374.588L291.322 272.088Z" fill="white" fill-opacity="0.78"/>
<path d="M291.322 272.088L370.327 161.602C375.05 154.997 367.861 146.439 360.541 149.963L301.254 178.495L291.322 272.088Z" fill="white" fill-opacity="0.78"/>
<path d="M120.298 260.528L113.759 266.11C111.972 267.896 111.035 269.589 111.021 271.598L111.052 272.113L291.321 272.089L307.621 118.54C307.788 116.979 307.483 115.404 306.745 114.019C306.007 112.634 304.871 111.502 303.482 110.771C302.094 110.039 300.517 109.742 298.957 109.916C297.397 110.091 295.925 110.73 294.731 111.751L128.158 253.823C124.566 257.055 122.451 258.785 122.451 258.785C121.687 259.411 120.993 259.994 120.298 260.528Z" fill="white"/>
<path d="M111.054 272.112C111.226 274.419 112.751 276.291 115.081 278.387L321.288 433.005C322.604 433.96 324.183 434.484 325.809 434.507C327.435 434.53 329.029 434.051 330.372 433.134C331.716 432.217 332.744 430.907 333.315 429.384C333.887 427.861 333.974 426.199 333.565 424.626L291.323 272.088" fill="white"/>
<path d="M719.279 109.004H922.815V166.389H779.802V244.396H908.469V301.781H779.802V430H719.279V109.004ZM962.096 430V109.004H1020.83V430H962.096ZM1223.09 401.308H1219.5C1212.63 412.366 1203.36 421.183 1191.71 427.758C1180.05 434.035 1166.75 437.173 1151.81 437.173C1124.01 437.173 1103.24 428.655 1089.49 411.619C1076.04 394.583 1069.32 371.868 1069.32 343.475V210.324H1128.05V336.301C1128.05 352.142 1131.48 363.948 1138.36 371.719C1145.53 379.191 1155.84 382.927 1169.29 382.927C1177.36 382.927 1184.39 381.283 1190.36 377.995C1196.64 374.409 1201.87 369.776 1206.05 364.097C1210.54 358.12 1213.83 351.245 1215.92 343.475C1218.31 335.405 1219.5 326.887 1219.5 317.92V210.324H1278.23V430H1223.09V401.308ZM1383.24 318.369L1307.92 210.324H1377.41L1417.31 271.295H1420.45L1458.11 210.324H1529.84L1452.73 318.369L1529.84 430H1460.8L1419.55 367.235H1416.41L1376.51 430H1307.02L1383.24 318.369ZM1760.28 377.098C1750.12 395.031 1736.37 409.527 1719.04 420.585C1702 431.644 1681.08 437.173 1656.27 437.173C1639.54 437.173 1624 434.334 1609.65 428.655C1595.6 422.677 1583.35 414.458 1572.89 403.998C1562.43 393.537 1554.21 381.283 1548.23 367.235C1542.55 352.889 1539.71 337.198 1539.71 320.162C1539.71 304.321 1542.55 289.378 1548.23 275.33C1553.91 260.984 1561.83 248.581 1571.99 238.12C1582.15 227.36 1594.11 218.842 1607.86 212.566C1621.9 206.289 1637.3 203.151 1654.03 203.151C1671.67 203.151 1687.36 206.14 1701.11 212.117C1714.85 217.796 1726.36 225.866 1735.63 236.327C1744.89 246.488 1751.92 258.593 1756.7 272.64C1761.48 286.688 1763.87 301.93 1763.87 318.369C1763.87 320.461 1763.87 322.254 1763.87 323.749C1763.57 325.542 1763.42 327.186 1763.42 328.68C1763.12 330.174 1762.97 331.818 1762.97 333.612H1597.54C1598.74 342.578 1601.13 350.349 1604.72 356.924C1608.6 363.201 1613.24 368.58 1618.62 373.064C1624.29 377.248 1630.42 380.386 1637 382.478C1643.57 384.272 1650.3 385.168 1657.17 385.168C1670.62 385.168 1681.68 382.179 1690.35 376.202C1699.31 369.925 1706.34 362.155 1711.42 352.889L1760.28 377.098ZM1706.93 291.918C1706.64 288.033 1705.29 283.699 1702.9 278.917C1700.81 274.135 1697.52 269.652 1693.04 265.467C1688.85 261.283 1683.47 257.846 1676.9 255.156C1670.62 252.466 1663 251.121 1654.03 251.121C1641.48 251.121 1630.42 254.708 1620.86 261.881C1611.29 269.054 1604.57 279.066 1600.68 291.918H1706.93ZM1856.52 239.016H1860.11C1866.98 227.958 1876.25 219.29 1887.9 213.014C1899.56 206.439 1912.86 203.151 1927.8 203.151C1941.55 203.151 1953.66 205.393 1964.12 209.876C1974.58 214.359 1983.1 220.785 1989.67 229.153C1996.55 237.223 2001.63 247.086 2004.92 258.742C2008.5 270.1 2010.3 282.802 2010.3 296.849V430H1951.57V304.023C1951.57 288.182 1947.98 276.526 1940.81 269.054C1933.93 261.283 1923.77 257.397 1910.32 257.397C1902.25 257.397 1895.08 259.191 1888.8 262.777C1882.82 266.065 1877.59 270.698 1873.11 276.675C1868.93 282.354 1865.64 289.228 1863.25 297.298C1861.15 305.069 1860.11 313.437 1860.11 322.404V430H1801.38V210.324H1856.52V239.016ZM2071.64 260.536H2033.08V210.324H2071.64V143.076H2130.37V210.324H2184.17V260.536H2130.37V345.716C2130.37 350.797 2130.82 355.579 2131.71 360.062C2132.91 364.247 2135 367.833 2137.99 370.822C2142.17 375.604 2148.15 377.995 2155.92 377.995C2161 377.995 2165.04 377.547 2168.03 376.65C2171.01 375.455 2173.85 373.96 2176.54 372.167L2193.13 423.724C2186.26 427.011 2178.79 429.402 2170.72 430.897C2162.95 432.69 2154.28 433.587 2144.71 433.587C2133.66 433.587 2123.64 431.943 2114.68 428.655C2106.01 425.068 2098.69 420.286 2092.71 414.309C2078.66 400.859 2071.64 381.731 2071.64 356.924V260.536ZM2379.35 401.308H2375.76C2368.89 412.366 2359.62 421.183 2347.97 427.758C2336.31 434.035 2323.01 437.173 2308.07 437.173C2280.27 437.173 2259.5 428.655 2245.75 411.619C2232.3 394.583 2225.58 371.868 2225.58 343.475V210.324H2284.31V336.301C2284.31 352.142 2287.74 363.948 2294.62 371.719C2301.79 379.191 2312.1 382.927 2325.55 382.927C2333.62 382.927 2340.64 381.283 2346.62 377.995C2352.9 374.409 2358.13 369.776 2362.31 364.097C2366.8 358.12 2370.08 351.245 2372.18 343.475C2374.57 335.405 2375.76 326.887 2375.76 317.92V210.324H2434.49V430H2379.35V401.308ZM2484.8 210.324H2539.94V240.81H2543.53C2546.22 235.43 2549.81 230.498 2554.29 226.015C2558.77 221.532 2563.71 217.647 2569.09 214.359C2574.76 211.071 2580.74 208.531 2587.02 206.738C2593.59 204.944 2600.02 204.048 2606.3 204.048C2614.07 204.048 2620.64 204.795 2626.02 206.289C2631.7 207.784 2636.48 209.726 2640.37 212.117L2624.68 265.467C2621.09 263.674 2617.06 262.329 2612.57 261.432C2608.39 260.237 2603.16 259.639 2596.88 259.639C2588.81 259.639 2581.49 261.283 2574.91 264.571C2568.34 267.559 2562.66 271.893 2557.88 277.572C2553.39 283.251 2549.81 289.975 2547.12 297.746C2544.73 305.218 2543.53 313.437 2543.53 322.404V430H2484.8V210.324ZM2861.82 377.098C2851.65 395.031 2837.91 409.527 2820.57 420.585C2803.53 431.644 2782.61 437.173 2757.81 437.173C2741.07 437.173 2725.53 434.334 2711.18 428.655C2697.13 422.677 2684.88 414.458 2674.42 403.998C2663.96 393.537 2655.74 381.283 2649.76 367.235C2644.08 352.889 2641.24 337.198 2641.24 320.162C2641.24 304.321 2644.08 289.378 2649.76 275.33C2655.44 260.984 2663.36 248.581 2673.52 238.12C2683.68 227.36 2695.64 218.842 2709.39 212.566C2723.44 206.289 2738.83 203.151 2755.56 203.151C2773.2 203.151 2788.89 206.14 2802.64 212.117C2816.39 217.796 2827.89 225.866 2837.16 236.327C2846.42 246.488 2853.45 258.593 2858.23 272.64C2863.01 286.688 2865.4 301.93 2865.4 318.369C2865.4 320.461 2865.4 322.254 2865.4 323.749C2865.1 325.542 2864.95 327.186 2864.95 328.68C2864.66 330.174 2864.51 331.818 2864.51 333.612H2699.08C2700.27 342.578 2702.66 350.349 2706.25 356.924C2710.14 363.201 2714.77 368.58 2720.15 373.064C2725.83 377.248 2731.95 380.386 2738.53 382.478C2745.1 384.272 2751.83 385.168 2758.7 385.168C2772.15 385.168 2783.21 382.179 2791.88 376.202C2800.84 369.925 2807.87 362.155 2812.95 352.889L2861.82 377.098ZM2808.47 291.918C2808.17 288.033 2806.82 283.699 2804.43 278.917C2802.34 274.135 2799.05 269.652 2794.57 265.467C2790.38 261.283 2785 257.846 2778.43 255.156C2772.15 252.466 2764.53 251.121 2755.56 251.121C2743.01 251.121 2731.95 254.708 2722.39 261.881C2712.83 269.054 2706.1 279.066 2702.21 291.918H2808.47Z" fill="#515151"/>
</svg>
